<svg class="icon" viewBox="0 0 1024 1024" xmlns="http://www.w3.org/2000/svg" width="200" height="200"><defs><style/></defs><path d="M219.429 804.571q0 45.715-32 77.715t-77.715 32-77.714-32T0 804.57t32-77.714 77.714-32 77.715 32 32 77.714zm0-292.571q0 45.714-32 77.714t-77.715 32-77.714-32T0 512t32-77.714 77.714-32 77.715 32 32 77.714zM1024 749.714V859.43q0 7.428-5.429 12.857t-12.857 5.428H310.857q-7.428 0-12.857-5.428t-5.429-12.857V749.714q0-7.428 5.429-12.857t12.857-5.428h694.857q7.429 0 12.857 5.428t5.429 12.857zM219.429 219.43q0 45.714-32 77.714t-77.715 32-77.714-32T0 219.43t32-77.715 77.714-32 77.715 32 32 77.715zM1024 457.143v109.714q0 7.429-5.429 12.857t-12.857 5.429H310.857q-7.428 0-12.857-5.429t-5.429-12.857V457.143q0-7.429 5.429-12.857t12.857-5.429h694.857q7.429 0 12.857 5.429t5.429 12.857zm0-292.572v109.715q0 7.428-5.429 12.857t-12.857 5.428H310.857q-7.428 0-12.857-5.428t-5.429-12.857V164.57q0-7.428 5.429-12.857t12.857-5.428h694.857q7.429 0 12.857 5.428T1024 164.57z"/></svg>