<svg class="icon" viewBox="0 0 1024 1024" xmlns="http://www.w3.org/2000/svg" width="200" height="200"><defs><style/></defs><path d="M950.857 109.714v804.572q0 14.857-10.857 25.714t-25.714 10.857H621.714q-14.857 0-25.714-10.857t-10.857-25.714V109.714Q585.143 94.857 596 84t25.714-10.857h292.572Q929.143 73.143 940 84t10.857 25.714zm-512 0v804.572q0 14.857-10.857 25.714t-25.714 10.857H109.714Q94.857 950.857 84 940t-10.857-25.714V109.714Q73.143 94.857 84 84t25.714-10.857h292.572Q417.143 73.143 428 84t10.857 25.714z"/></svg>